<?xml version="1.0" standalone="no"?>
<svg viewbox="0 0 512 512" width="512" height="512" version="1.1" xmlns="http://www.w3.org/2000/svg">

    <!-- hřbet -->
    <path d="M 100 0 h 15 v 460 h -19 a 26 26 0 0 1 -26 26 v -456 a 30 30 0 0 1 30 -30 z"
        fill="#C03A2B" />

    <!-- obal  sirka 325 -->
    <path d="M 115 0 h 310 a 15 15 0 0 1 15 15 v 430 a 15 15 0 0 1 -15 15 h -310 z" fill="#E64C3C" />
    <!-- stranky -->
    <path d="M 420 460 v 37 a 15 15 0 0 1 -15 15 h -309 a 26 26 0 0 1 0 -52 z" fill="#F5EFCA" />

    <!-- zacatek obalu 115 -->

    <!-- jmenovka -->
    <rect x="157.5" y="60" width="240" height="50" rx="10" ry="10" fill="#35495E" />


    <g fill="#ECF0F1">
        <rect x="157.5" y="215" width="240" height="100" rx="50" ry="50" />
        <path d="M 217.5 235 a 60 60 0 0 1 120 0 v 130 h -120 z" />
    </g>

    <g fill="#95A5A5" rx="7.5" ry="7.5">
        <rect x="270" y="320" width="15" height="55" rx="7.5" ry="7.5" />
        <rect x="240" y="330" width="15" height="45" rx="7.5" ry="7.5" />
        <rect x="300" y="330" width="15" height="45" rx="7.5" ry="7.5" />
    </g>

    <path d="M 337.5 365 v 20 a 15 15 0 0 1 -15 15 h -90 a 15 15 0 0 1 -15 -15 v -20 z" fill="#D1D4D1" />
    <path stroke-width="15" stroke-linecap="round" d="M 225 235 a 52.5 52.5 0 0 1 105 0" fill="none" stroke="#D1D4D1" />

</svg>