<svg width="512" height="512" xmlns="http://www.w3.org/2000/svg"><path d="M100 0h15v460H96a26 26 0 0 1-26 26V30a30 30 0 0 1 30-30z" fill="#C03A2B"/><path d="M115 0h310a15 15 0 0 1 15 15v430a15 15 0 0 1-15 15H115z" fill="#E64C3C"/><path d="M420 460v37a15 15 0 0 1-15 15H96a26 26 0 0 1 0-52z" fill="#F5EFCA"/><rect x="157.5" y="60" width="240" height="50" rx="10" ry="10" fill="#35495E"/><g fill="#ECF0F1"><rect x="157.5" y="215" width="240" height="100" rx="50" ry="50"/><path d="M217.5 235a60 60 0 0 1 120 0v130h-120z"/></g><g fill="#95A5A5"><rect x="270" y="320" width="15" height="55" rx="7.5" ry="7.5"/><rect x="240" y="330" width="15" height="45" rx="7.5" ry="7.5"/><rect x="300" y="330" width="15" height="45" rx="7.5" ry="7.5"/></g><path d="M337.5 365v20a15 15 0 0 1-15 15h-90a15 15 0 0 1-15-15v-20z" fill="#D1D4D1"/><path stroke-width="15" stroke-linecap="round" d="M225 235a52.5 52.5 0 0 1 105 0" fill="none" stroke="#D1D4D1"/></svg>